<svg width="32" height="32" viewBox="0 0 32 32" fill="none" xmlns="http://www.w3.org/2000/svg">
  <rect width="32" height="32" rx="6" fill="#7FE7E1"/>
  <path d="M8 12C8 10.8954 8.89543 10 10 10H22C23.1046 10 24 10.8954 24 12V13C24 13.5523 23.5523 14 23 14C22.4477 14 22 13.5523 22 13V12H10V13C10 13.5523 9.55228 14 9 14C8.44772 14 8 13.5523 8 13V12Z" fill="#111111"/>
  <ellipse cx="12" cy="18" rx="1.5" ry="2" fill="#111111"/>
  <ellipse cx="20" cy="18" rx="1.5" ry="2" fill="#111111"/>
  <path d="M10 21C10 20.4477 10.4477 20 11 20H21C21.5523 20 22 20.4477 22 21C22 22.1046 21.1046 23 20 23H12C10.8954 23 10 22.1046 10 21Z" fill="#111111"/>
</svg>
